<svg version="1.0" xmlns="http://www.w3.org/2000/svg"
 width="96.000000pt" height="96.000000pt" viewBox="0 0 96.000000 96.000000"
 preserveAspectRatio="xMidYMid meet">
<g transform="translate(0.000000,96.000000) scale(0.100000,-0.100000)"
fill="#000000" stroke="none">
<path d="M532 783 c-48 -23 -84 -75 -90 -129 l-5 -46 -48 4 c-62 6 -145 48
-207 103 -28 25 -52 45 -55 45 -2 0 -7 -17 -11 -38 -9 -57 11 -112 56 -154 29
-29 34 -38 21 -38 -10 0 -30 7 -45 14 -27 15 -28 14 -28 -14 0 -37 38 -82 93
-110 l42 -21 -47 3 c-38 2 -48 0 -48 -13 0 -26 57 -71 106 -84 l47 -12 -45
-21 c-24 -12 -64 -23 -89 -23 -24 -1 -57 -4 -74 -8 l-30 -7 34 -18 c147 -78
343 -75 483 7 112 65 198 204 206 333 4 68 7 74 43 110 48 46 49 58 7 48 l-33
-7 33 34 c35 36 43 66 15 54 -92 -37 -103 -38 -148 -16 -51 26 -136 28 -183 4z
m145 -88 c30 -21 42 -70 32 -139 -19 -144 -123 -256 -279 -301 -24 -7 -24 -7
-7 12 23 26 22 30 -14 71 -33 37 -89 146 -89 172 0 13 16 14 100 12 l100 -4 0
44 c0 100 33 148 100 148 20 0 45 -7 57 -15z"/>
</g>
</svg>
